:FULLY-SPECIFIED
:FORCE-ALL-JOINTS-BE-3DOF
:DEGREES
1019
root 1.14863 15.1624 32.435 4.83752 -3.49657 3.57655
lfemur 8.45353 0.519052 5.71157
ltibia -4.4842e-14 0 0
lfoot -30.1295 -11.0044 -1.74166e-05
ltoes -34.3627 0 0
rfemur -31.5874 -15.9375 -6.01852
rtibia 50.1367 -0 0
rfoot -22.407 4.75212 0.00116045
rtoes -42.571 0 0
lowerback -1.40031 -0.144251 0.281443
upperback -0.539263 -0.181715 -5.92289
thorax 0.21074 -0.0985068 -6.30232
lowerneck -7.19483 0.941661 6.20999
upperneck 1.65536 0.56794 3.57259
head 1.75074 0.420695 0.0927265
lclavicle 6.72943e-15 2.65612e-15 -2.14177e-30
lhumerus -58.7214 -46.5758 115.459
lradius 55.6634 -0 0
lwrist 25.1765 0 0
lhand 37.1986 24.8321 0.00025676
lfingers 7.12502 -0 0
lthumb 60.0351 38.575 0.000123652
rclavicle 6.72943e-15 2.65612e-15 -2.14177e-30
rhumerus 2.83619 -23.8644 0.124256
rradius 27.6153 -0 0
rwrist -10.3498 0 0
rhand -30.7267 -42.9747 -0.000128955
rfingers 7.12502 -0 0
rthumb -4.01925 -72.9163 -0.000123054
1020
root 1.14915 15.162 32.4379 4.83457 -3.48916 3.56841
lfemur 8.46559 0.511284 5.71984
ltibia -4.27891e-14 0 0
lfoot -30.1332 -11.0065 -1.8457e-05
ltoes -34.3684 0 0
rfemur -31.5771 -15.9525 -6.01902
rtibia 50.1466 -0 0
rfoot -22.3806 4.82289 0.00116001
rtoes -42.4863 0 0
lowerback -1.41497 -0.137446 0.264466
upperback -0.536203 -0.171722 -5.93347
thorax 0.223262 -0.0932206 -6.30372
lowerneck -7.18976 0.935445 6.23289
upperneck 1.65861 0.557795 3.5751
head 1.75088 0.415947 0.0892815
lclavicle 7.69916e-15 5.70273e-15 -2.14222e-30
lhumerus -58.7157 -46.5872 115.446
lradius 55.6693 -0 0
lwrist 25.1853 0 0
lhand 37.2136 24.8595 0.000254845
lfingers 7.12502 -0 0
lthumb 60.0479 38.5889 0.00012091
rclavicle 7.69916e-15 5.70273e-15 -2.14222e-30
rhumerus 2.82388 -23.8622 0.133697
rradius 27.6008 -0 0
rwrist -10.3037 0 0
rhand -30.7118 -42.9407 -9.99701e-05
rfingers 7.12502 -0 0
rthumb -4.00492 -72.8826 -9.53555e-05
1021
root 1.14971 15.1616 32.4409 4.8321 -3.48276 3.56069
lfemur 8.47814 0.504591 5.72749
ltibia -4.06193e-14 0 0
lfoot -30.1371 -11.0095 -1.92132e-05
ltoes -34.3734 0 0
rfemur -31.5674 -15.9669 -6.02005
rtibia 50.1567 -0 0
rfoot -22.3541 4.89402 0.0011275
rtoes -42.4002 0 0
lowerback -1.43004 -0.13079 0.247397
upperback -0.533263 -0.161915 -5.94404
thorax 0.235864 -0.0880304 -6.30506
lowerneck -7.18413 0.929283 6.25566
upperneck 1.66097 0.547831 3.57749
head 1.75063 0.411248 0.0858193
lclavicle 8.62976e-15 8.77201e-15 -2.08314e-30
lhumerus -58.7097 -46.5976 115.433
lradius 55.6748 -0 0
lwrist 25.1942 0 0
lhand 37.2287 24.8868 0.000246098
lfingers 7.12502 -0 0
lthumb 60.0608 38.6026 0.000115263
rclavicle 8.62976e-15 8.77201e-15 -2.08314e-30
rhumerus 2.81175 -23.8606 0.14333
rradius 27.5866 -0 0
rwrist -10.2581 0 0
rhand -30.6975 -42.9072 -6.9335e-05
rfingers 7.12502 -0 0
rthumb -3.9911 -72.8494 -6.60827e-05
1022
root 1.15032 15.1612 32.4441 4.83007 -3.47717 3.55336
lfemur 8.49102 0.498804 5.73452
ltibia -3.83619e-14 0 0
lfoot -30.1413 -11.0131 -1.9633e-05
ltoes -34.3777 0 0
rfemur -31.5581 -15.9803 -6.02161
rtibia 50.1668 -0 0
rfoot -22.3276 4.9646 0.0010641
rtoes -42.3137 0 0
lowerback -1.44537 -0.124312 0.230273
upperback -0.530438 -0.152339 -5.95449
thorax 0.248469 -0.0829587 -6.30626
lowerneck -7.17806 0.923171 6.27813
upperneck 1.66242 0.53805 3.57978
head 1.75001 0.406598 0.082378
lclavicle 9.50836e-15 1.183e-14 -1.96731e-30
lhumerus -58.7034 -46.6071 115.419
lradius 55.6799 -0 0
lwrist 25.2033 0 0
lhand 37.2438 24.9138 0.000230873
lfingers 7.12502 -0 0
lthumb 60.0737 38.616 0.000106959
rclavicle 9.50836e-15 1.183e-14 -1.96731e-30
rhumerus 2.79962 -23.8591 0.153195
rradius 27.5728 -0 0
rwrist -10.2132 0 0
rhand -30.6838 -42.8743 -3.86823e-05
rfingers 7.12502 -0 0
rthumb -3.97781 -72.8168 -3.67957e-05
1023
root 1.15098 15.1608 32.4473 4.82842 -3.47223 3.5464
lfemur 8.50406 0.493753 5.74093
ltibia -3.60463e-14 0 0
lfoot -30.1456 -11.0172 -1.96532e-05
ltoes -34.3814 0 0
rfemur -31.549 -15.9927 -6.02371
rtibia 50.1766 -0 0
rfoot -22.3014 5.03369 0.000972339
rtoes -42.2278 0 0
lowerback -1.46082 -0.118042 0.213136
upperback -0.527717 -0.143035 -5.96473
thorax 0.261 -0.078028 -6.30722
lowerneck -7.17167 0.917109 6.30015
upperneck 1.6629 0.528456 3.58199
head 1.74901 0.401998 0.0789956
lclavicle 1.03221e-14 1.48426e-14 -1.79996e-30
lhumerus -58.6972 -46.616 115.405
lradius 55.6848 -0 0
lwrist 25.2125 0 0
lhand 37.2586 24.9404 0.000209787
lfingers 7.12502 -0 0
lthumb 60.0864 38.6292 9.63287e-05
rclavicle 1.03221e-14 1.48426e-14 -1.79996e-30
rhumerus 2.78731 -23.8577 0.163333
rradius 27.5595 -0 0
rwrist -10.1696 0 0
rhand -30.6705 -42.842 -9.68231e-06
rfingers 7.12502 -0 0
rthumb -3.96504 -72.7847 -9.09074e-06
1024
root 1.15171 15.1604 32.4506 4.82711 -3.46776 3.53979
lfemur 8.51709 0.489268 5.74669
ltibia -3.37018e-14 0 0
lfoot -30.1502 -11.0218 -1.91985e-05
ltoes -34.3844 0 0
rfemur -31.5398 -16.0038 -6.02636
rtibia 50.1858 -0 0
rfoot -22.2757 5.10038 0.00085606
rtoes -42.1434 0 0
lowerback -1.47624 -0.112006 0.196023
upperback -0.525094 -0.134047 -5.97463
thorax 0.273379 -0.0732607 -6.30785
lowerneck -7.16508 0.911094 6.32156
upperneck 1.66239 0.519052 3.58417
head 1.74765 0.397448 0.0757097
lclavicle 1.10581e-14 1.77758e-14 -1.5885e-30
lhumerus -58.6911 -46.6245 115.392
lradius 55.6895 -0 0
lwrist 25.2218 0 0
lhand 37.2731 24.9663 0.000183722
lfingers 7.12502 -0 0
lthumb 60.0988 38.6421 8.37817e-05
rclavicle 1.10581e-14 1.77758e-14 -1.5885e-30
rhumerus 2.77465 -23.856 0.173785
rradius 27.5468 -0 0
rwrist -10.1274 0 0
rhand -30.6579 -42.81 1.59598e-05
rfingers 7.12502 -0 0
rthumb -3.9528 -72.753 1.54022e-05
1025
root 1.15252 15.1601 32.4539 4.8261 -3.46359 3.53349
lfemur 8.52993 0.485179 5.75182
ltibia -3.13579e-14 0 0
lfoot -30.155 -11.0267 -1.81777e-05
ltoes -34.3867 0 0
rfemur -31.5303 -16.0135 -6.02956
rtibia 50.1941 -0 0
rfoot -22.2507 5.16373 0.000720336
rtoes -42.0615 0 0
lowerback -1.49149 -0.106234 0.178974
upperback -0.522561 -0.125417 -5.98409
thorax 0.28553 -0.0686795 -6.30804
lowerneck -7.15841 0.905123 6.34217
upperneck 1.66082 0.509842 3.58633
head 1.74593 0.392948 0.0725585
lclavicle 1.17034e-14 2.05958e-14 -1.34228e-30
lhumerus -58.6855 -46.6328 115.38
lradius 55.6941 -0 0
lwrist 25.2312 0 0
lhand 37.2869 24.9914 0.000153801
lfingers 7.12502 -0 0
lthumb 60.1106 38.6547 6.98027e-05
rclavicle 1.17034e-14 2.05958e-14 -1.34228e-30
rhumerus 2.76144 -23.8537 0.184589
rradius 27.5348 -0 0
rwrist -10.0871 0 0
rhand -30.6457 -42.7785 3.65063e-05
rfingers 7.12502 -0 0
rthumb -3.94109 -72.7217 3.50222e-05
1026
root 1.15342 15.1597 32.4572 4.82534 -3.45953 3.5275
lfemur 8.54242 0.481318 5.75629
ltibia -2.90438e-14 0 0
lfoot -30.1601 -11.0317 -1.64822e-05
ltoes -34.3883 0 0
rfemur -31.5202 -16.0214 -6.03333
rtibia 50.2013 -0 0
rfoot -22.2265 5.22282 0.000571392
rtoes -41.9829 0 0
lowerback -1.50642 -0.100753 0.16203
upperback -0.520108 -0.117189 -5.993
thorax 0.297377 -0.0643069 -6.30771
lowerneck -7.15178 0.899195 6.36185
upperneck 1.65817 0.500828 3.58851
head 1.74386 0.388499 0.0695798
lclavicle 1.22452e-14 2.32684e-14 -1.0722e-30
lhumerus -58.6804 -46.6412 115.369
lradius 55.6987 -0 0
lwrist 25.2408 0 0
lhand 37.3001 25.0155 0.000121376
lfingers 7.12502 -0 0
lthumb 60.1218 38.667 5.49469e-05
rclavicle 1.22452e-14 2.32684e-14 -1.0722e-30
rhumerus 2.7475 -23.8507 0.195787
rradius 27.5236 -0 0
rwrist -10.0491 0 0
rhand -30.6342 -42.7473 5.0189e-05
rfingers 7.12502 -0 0
rthumb -3.92992 -72.6907 4.80793e-05
1027
root 1.15441 15.1594 32.4604 4.82479 -3.45542 3.52177
lfemur 8.55438 0.477513 5.76009
ltibia -2.6789e-14 0 0
lfoot -30.1654 -11.0367 -1.39825e-05
ltoes -34.3891 0 0
rfemur -31.5094 -16.0275 -6.03767
rtibia 50.207 -0 0
rfoot -22.2034 5.27672 0.000416471
rtoes -41.9088 0 0
lowerback -1.52089 -0.0955926 0.145229
upperback -0.517728 -0.109405 -6.00125
thorax 0.308841 -0.0601655 -6.30677
lowerneck -7.14531 0.893309 6.38041
upperneck 1.65439 0.492015 3.59073
head 1.74144 0.384102 0.0668115
lclavicle 1.26707e-14 2.57597e-14 -7.90318e-31
lhumerus -58.6761 -46.65 115.359
lradius 55.7035 -0 0
lwrist 25.2504 0 0
lhand 37.3122 25.0384 8.79988e-05
lfingers 7.12502 -0 0
lthumb 60.1322 38.6789 3.98343e-05
rclavicle 1.26707e-14 2.57597e-14 -7.90318e-31
rhumerus 2.73266 -23.8466 0.207417
rradius 27.5133 -0 0
rwrist -10.0136 0 0
rhand -30.6232 -42.7164 5.52121e-05
rfingers 7.12502 -0 0
rthumb -3.91928 -72.66 5.2857e-05
1028
root 1.15552 15.1592 32.4637 4.82439 -3.45107 3.5163
lfemur 8.56566 0.473597 5.76322
ltibia -2.46228e-14 0 0
lfoot -30.171 -11.0416 -1.05262e-05
ltoes -34.3891 0 0
rfemur -31.4975 -16.0316 -6.04259
rtibia 50.2109 -0 0
rfoot -22.1816 5.32452 0.000263676
rtoes -41.84 0 0
lowerback -1.53476 -0.0907797 0.12861
upperback -0.515412 -0.102107 -6.00873
thorax 0.319847 -0.0562781 -6.30511
lowerneck -7.13911 0.887463 6.3977
upperneck 1.64944 0.483404 3.59304
head 1.73868 0.379757 0.0642915
lclavicle 1.29668e-14 2.80356e-14 -5.09294e-31
lhumerus -58.6727 -46.6592 115.351
lradius 55.7084 -0 0
lwrist 25.2602 0 0
lhand 37.3233 25.0599 5.53915e-05
lfingers 7.12502 -0 0
lthumb 60.1417 38.6905 2.51438e-05
rclavicle 1.29668e-14 2.80356e-14 -5.09294e-31
rhumerus 2.71674 -23.8412 0.219519
rradius 27.504 -0 0
rwrist -9.98117 0 0
rhand -30.6127 -42.6857 4.97544e-05
rfingers 7.12502 -0 0
rthumb -3.90919 -72.6295 4.76145e-05
